<?xml version="1.0" standalone="no"?>
<!DOCTYPE svg PUBLIC "-//W3C//DTD SVG 20010904//EN"
 "http://www.w3.org/TR/2001/REC-SVG-20010904/DTD/svg10.dtd">
<svg version="1.0" xmlns="http://www.w3.org/2000/svg"
 width="1055.000000pt" height="1055.000000pt" viewBox="0 0 1055.000000 1055.000000"
 preserveAspectRatio="xMidYMid meet">
<metadata>
Created by potrace 1.14, written by Peter Selinger 2001-2017
</metadata>
<g transform="translate(0.000000,1055.000000) scale(0.100000,-0.100000)"
fill="#000000" stroke="none">
<path d="M4997 10544 c-1 -1 -53 -5 -115 -9 -62 -3 -123 -8 -135 -10 -12 -2
-47 -6 -77 -10 -82 -8 -181 -22 -235 -32 -16 -3 -37 -6 -45 -7 -64 -9 -120
-19 -145 -26 -16 -5 -46 -11 -65 -14 -62 -9 -321 -76 -465 -121 -486 -150
-983 -388 -1395 -669 -75 -50 -345 -250 -366 -270 -6 -6 -33 -29 -60 -51 -145
-120 -358 -324 -509 -487 -577 -624 -1003 -1409 -1220 -2248 -9 -36 -18 -72
-20 -80 -2 -8 -13 -58 -24 -110 -12 -52 -24 -111 -27 -130 -3 -19 -7 -43 -10
-53 -3 -10 -7 -32 -10 -50 -5 -46 -13 -98 -19 -127 -6 -30 -13 -85 -21 -165
-3 -33 -7 -71 -10 -85 -26 -166 -26 -810 1 -1040 3 -19 7 -55 10 -80 7 -66 24
-190 30 -225 3 -16 7 -43 10 -60 3 -16 7 -41 10 -55 3 -14 10 -52 16 -85 68
-380 244 -900 436 -1285 l42 -85 1 690 c0 380 0 1282 0 2006 l0 1316 101 119
c56 65 111 130 122 144 12 14 55 66 96 115 41 50 80 95 85 100 6 6 31 35 56
65 25 30 47 57 50 60 3 3 53 61 110 130 58 68 115 136 126 150 12 14 39 46 60
71 47 55 123 144 146 172 17 19 18 -63 20 -1719 l3 -1738 36 59 c93 156 957
1572 994 1630 30 47 491 802 673 1103 46 75 121 198 166 272 143 232 687 1123
706 1155 18 31 507 832 844 1382 105 172 201 331 214 353 l22 40 -106 -3 c-58
-1 -106 -3 -107 -3z"/>
<path d="M5670 9845 l0 -696 -62 -97 c-68 -107 -137 -215 -236 -367 -108 -167
-119 -184 -432 -670 -167 -258 -335 -519 -374 -580 -39 -60 -139 -215 -221
-343 -83 -127 -219 -339 -303 -469 -84 -131 -180 -280 -214 -333 -34 -52 -85
-131 -113 -175 -28 -44 -73 -114 -100 -155 -48 -76 -64 -100 -217 -335 -46
-71 -97 -150 -112 -175 -15 -25 -73 -116 -129 -202 -155 -238 -410 -634 -430
-668 l-19 -30 69 -82 c37 -46 76 -92 85 -103 9 -11 64 -78 123 -150 58 -71
114 -139 123 -150 10 -11 89 -108 177 -215 88 -107 162 -197 165 -200 3 -3 23
-27 45 -55 22 -27 44 -55 50 -61 5 -6 57 -69 115 -139 58 -71 202 -246 320
-390 118 -144 231 -281 250 -304 19 -24 71 -87 115 -140 107 -130 230 -280
399 -486 77 -93 143 -172 146 -175 3 -3 21 -25 40 -50 19 -25 45 -56 56 -70
36 -42 613 -742 651 -790 6 -8 68 -83 137 -166 69 -84 126 -154 126 -156 0 -5
-198 -4 -1086 3 l-340 3 -35 45 c-19 25 -39 52 -46 61 -22 28 -246 315 -467
602 -610 787 -882 1137 -1151 1483 -71 92 -139 179 -150 194 -11 15 -65 85
-121 156 -55 72 -118 153 -140 181 -113 146 -296 383 -318 409 l-24 30 -236
-240 -236 -240 0 -909 0 -908 48 -45 c115 -110 161 -152 222 -203 36 -29 70
-59 75 -64 15 -16 142 -117 210 -167 33 -24 62 -47 65 -50 22 -27 378 -252
570 -361 371 -211 881 -405 1335 -510 238 -54 415 -84 675 -112 263 -29 812
-29 1055 0 22 2 60 7 85 9 25 2 63 7 85 11 22 4 51 8 65 9 21 2 182 29 241 40
9 2 61 13 115 25 55 12 106 23 115 25 56 12 276 74 393 112 456 147 923 375
1331 652 672 455 1239 1072 1644 1791 42 74 189 368 228 455 70 158 214 554
238 657 3 13 25 102 50 198 25 96 47 193 51 215 3 22 12 69 19 105 7 36 18
101 25 145 6 44 13 90 15 102 2 12 6 57 10 100 4 43 8 85 10 93 19 76 27 713
12 890 -16 180 -33 330 -40 336 -2 2 -31 -9 -63 -25 -173 -85 -355 -108 -582
-71 -112 18 -115 14 -231 -278 -107 -267 -118 -314 -98 -417 3 -11 7 -36 11
-55 3 -19 8 -44 10 -55 5 -31 19 -118 22 -140 1 -11 7 -51 12 -90 6 -38 14
-99 17 -135 4 -36 8 -72 10 -80 1 -8 6 -60 10 -115 4 -55 9 -125 12 -155 8
-103 10 -515 2 -590 -16 -166 -36 -255 -73 -327 -33 -64 -72 -99 -127 -114
-40 -11 -53 -10 -91 4 -104 40 -168 111 -211 237 -46 131 -57 224 -52 440 2
107 7 213 10 235 3 22 13 87 22 145 20 138 25 169 47 275 32 152 94 393 141
546 22 72 23 80 10 140 -17 83 -52 220 -57 225 -3 2 -10 -33 -17 -78 -60 -391
-208 -582 -416 -536 -99 22 -168 96 -210 225 l-21 63 -19 -38 c-90 -173 -315
-435 -490 -567 -211 -160 -473 -240 -694 -211 -126 16 -352 114 -435 189 -37
34 -130 94 -162 104 -150 51 -395 -285 -571 -782 -29 -83 -60 -115 -109 -115
-38 0 -83 36 -85 67 0 10 -2 27 -4 38 -3 11 -7 40 -10 65 -3 25 -7 56 -10 70
-2 14 -9 63 -15 110 -12 88 -20 144 -25 170 -2 8 -4 22 -5 30 0 8 -8 2 -17
-15 -59 -112 -228 -370 -317 -485 -121 -156 -302 -329 -451 -431 -234 -159
-487 -228 -715 -194 -198 29 -295 85 -387 223 -77 116 -113 301 -104 534 1 43
39 93 75 100 27 5 75 -12 92 -33 7 -8 14 -76 17 -169 3 -85 7 -164 10 -175 3
-11 8 -33 12 -50 14 -54 53 -121 97 -167 56 -57 140 -82 273 -83 152 0 242 19
380 79 318 141 693 581 960 1129 27 54 60 107 73 118 61 47 134 2 146 -91 45
-358 39 -330 65 -330 14 0 34 27 76 108 32 59 61 109 64 112 3 3 27 37 53 75
121 178 260 277 392 278 80 1 161 -36 287 -128 233 -171 429 -214 649 -143
249 80 481 281 691 598 62 94 160 267 191 339 11 25 26 53 33 61 7 8 20 42 30
75 20 69 71 177 122 255 85 129 304 308 400 326 61 11 111 -45 98 -108 -7 -30
-8 -31 -125 -107 -156 -102 -264 -242 -324 -423 -61 -181 -49 -425 25 -499 25
-25 70 -24 104 3 52 41 112 212 130 373 4 33 9 62 10 65 4 7 16 185 19 295 2
50 6 97 10 106 10 23 50 42 88 42 44 0 86 -51 150 -179 87 -178 119 -185 189
-37 22 48 45 98 50 110 20 53 62 104 100 123 51 27 93 27 195 1 79 -20 226
-29 284 -17 14 3 39 8 55 12 52 10 138 44 203 80 34 19 62 37 62 39 0 2 -7 35
-15 74 -8 39 -17 85 -20 103 -3 18 -11 51 -16 73 -6 22 -12 47 -14 55 -31 159
-141 504 -237 745 -56 140 -204 451 -281 591 -95 172 -248 409 -371 574 -64
87 -183 238 -196 250 -3 3 -18 21 -34 40 -47 58 -185 207 -279 300 -597 600
-1341 1053 -2137 1303 -134 43 -341 100 -400 111 -14 3 -65 14 -115 25 -49 11
-110 23 -135 26 -24 4 -47 8 -50 10 -5 3 -40 8 -209 30 -30 4 -61 8 -70 10 -9
1 -54 6 -101 10 -47 3 -93 9 -102 11 -17 5 -18 -33 -18 -691z m-1676 -5245
c15 -5 33 -25 42 -44 16 -33 16 -36 -14 -100 -53 -114 -150 -236 -187 -236
-36 0 -84 32 -94 62 -16 47 -15 52 38 121 27 35 63 91 80 125 41 80 71 97 135
72z"/>
<path d="M9381 4896 c-13 -16 -36 -91 -47 -156 -4 -25 -8 -47 -9 -50 -1 -3 -5
-32 -9 -65 -5 -33 -10 -69 -12 -80 -2 -11 -7 -49 -10 -85 -3 -36 -8 -81 -10
-100 -14 -145 -21 -433 -14 -560 10 -155 79 -297 131 -270 25 14 28 26 45 195
23 232 23 815 0 995 -2 14 -7 49 -11 79 -11 89 -31 125 -54 97z"/>
</g>
</svg>
